<svg id="visual" viewBox="0 0 960 540" width="960" height="540" xmlns="http://www.w3.org/2000/svg" xmlns:xlink="http://www.w3.org/1999/xlink" version="1.1"><path d="M0 82L14.5 87.3C29 92.7 58 103.3 87.2 105.2C116.3 107 145.7 100 174.8 95.5C204 91 233 89 262 83.5C291 78 320 69 349 70.8C378 72.7 407 85.3 436.2 92.7C465.3 100 494.7 102 523.8 100.2C553 98.3 582 92.7 611 96.2C640 99.7 669 112.3 698 116.8C727 121.3 756 117.7 785.2 104.2C814.3 90.7 843.7 67.3 872.8 59.3C902 51.3 931 58.7 945.5 62.3L960 66L960 0L945.5 0C931 0 902 0 872.8 0C843.7 0 814.3 0 785.2 0C756 0 727 0 698 0C669 0 640 0 611 0C582 0 553 0 523.8 0C494.7 0 465.3 0 436.2 0C407 0 378 0 349 0C320 0 291 0 262 0C233 0 204 0 174.8 0C145.7 0 116.3 0 87.2 0C58 0 29 0 14.5 0L0 0Z" fill="#07a0c3"></path><path d="M0 136L14.5 138.7C29 141.3 58 146.7 87.2 144C116.3 141.3 145.7 130.7 174.8 128.8C204 127 233 134 262 136.7C291 139.3 320 137.7 349 143.2C378 148.7 407 161.3 436.2 165.8C465.3 170.3 494.7 166.7 523.8 158.5C553 150.3 582 137.7 611 142.2C640 146.7 669 168.3 698 172.8C727 177.3 756 164.7 785.2 145.8C814.3 127 843.7 102 872.8 98.5C902 95 931 113 945.5 122L960 131L960 64L945.5 60.3C931 56.7 902 49.3 872.8 57.3C843.7 65.3 814.3 88.7 785.2 102.2C756 115.7 727 119.3 698 114.8C669 110.3 640 97.7 611 94.2C582 90.7 553 96.3 523.8 98.2C494.7 100 465.3 98 436.2 90.7C407 83.3 378 70.7 349 68.8C320 67 291 76 262 81.5C233 87 204 89 174.8 93.5C145.7 98 116.3 105 87.2 103.2C58 101.3 29 90.7 14.5 85.3L0 80Z" fill="#35afce"></path><path d="M0 185L14.5 191.2C29 197.3 58 209.7 87.2 214.2C116.3 218.7 145.7 215.3 174.8 219C204 222.7 233 233.3 262 227C291 220.7 320 197.3 349 198.2C378 199 407 224 436.2 239.3C465.3 254.7 494.7 260.3 523.8 254.2C553 248 582 230 611 223.7C640 217.3 669 222.7 698 222.7C727 222.7 756 217.3 785.2 205.7C814.3 194 843.7 176 872.8 171.5C902 167 931 176 945.5 180.5L960 185L960 129L945.5 120C931 111 902 93 872.8 96.5C843.7 100 814.3 125 785.2 143.8C756 162.7 727 175.3 698 170.8C669 166.3 640 144.7 611 140.2C582 135.7 553 148.3 523.8 156.5C494.7 164.7 465.3 168.3 436.2 163.8C407 159.3 378 146.7 349 141.2C320 135.7 291 137.3 262 134.7C233 132 204 125 174.8 126.8C145.7 128.7 116.3 139.3 87.2 142C58 144.7 29 139.3 14.5 136.7L0 134Z" fill="#4fbeda"></path><path d="M0 222L14.5 226.5C29 231 58 240 87.2 243.7C116.3 247.3 145.7 245.7 174.8 253.8C204 262 233 280 262 274.7C291 269.3 320 240.7 349 246C378 251.3 407 290.7 436.2 307.7C465.3 324.7 494.7 319.3 523.8 310.3C553 301.3 582 288.7 611 281.5C640 274.3 669 272.7 698 266.5C727 260.3 756 249.7 785.2 242.5C814.3 235.3 843.7 231.7 872.8 235.2C902 238.7 931 249.3 945.5 254.7L960 260L960 183L945.5 178.5C931 174 902 165 872.8 169.5C843.7 174 814.3 192 785.2 203.7C756 215.3 727 220.7 698 220.7C669 220.7 640 215.3 611 221.7C582 228 553 246 523.8 252.2C494.7 258.3 465.3 252.7 436.2 237.3C407 222 378 197 349 196.2C320 195.3 291 218.7 262 225C233 231.3 204 220.7 174.8 217C145.7 213.3 116.3 216.7 87.2 212.2C58 207.7 29 195.3 14.5 189.2L0 183Z" fill="#66cde6"></path><path d="M0 384L14.5 395.8C29 407.7 58 431.3 87.2 435.8C116.3 440.3 145.7 425.7 174.8 413C204 400.3 233 389.7 262 372.7C291 355.7 320 332.3 349 344C378 355.7 407 402.3 436.2 428.3C465.3 454.3 494.7 459.7 523.8 448C553 436.3 582 407.7 611 389.7C640 371.7 669 364.3 698 370.7C727 377 756 397 785.2 399.8C814.3 402.7 843.7 388.3 872.8 391C902 393.7 931 413.3 945.5 423.2L960 433L960 258L945.5 252.7C931 247.3 902 236.7 872.8 233.2C843.7 229.7 814.3 233.3 785.2 240.5C756 247.7 727 258.3 698 264.5C669 270.7 640 272.3 611 279.5C582 286.7 553 299.3 523.8 308.3C494.7 317.3 465.3 322.7 436.2 305.7C407 288.7 378 249.3 349 244C320 238.7 291 267.3 262 272.7C233 278 204 260 174.8 251.8C145.7 243.7 116.3 245.3 87.2 241.7C58 238 29 229 14.5 224.5L0 220Z" fill="#7bdcf2"></path><path d="M0 541L14.5 541C29 541 58 541 87.2 541C116.3 541 145.7 541 174.8 541C204 541 233 541 262 541C291 541 320 541 349 541C378 541 407 541 436.2 541C465.3 541 494.7 541 523.8 541C553 541 582 541 611 541C640 541 669 541 698 541C727 541 756 541 785.2 541C814.3 541 843.7 541 872.8 541C902 541 931 541 945.5 541L960 541L960 431L945.5 421.2C931 411.3 902 391.7 872.8 389C843.7 386.3 814.3 400.7 785.2 397.8C756 395 727 375 698 368.7C669 362.3 640 369.7 611 387.7C582 405.7 553 434.3 523.8 446C494.7 457.7 465.3 452.3 436.2 426.3C407 400.3 378 353.7 349 342C320 330.3 291 353.7 262 370.7C233 387.7 204 398.3 174.8 411C145.7 423.7 116.3 438.3 87.2 433.8C58 429.3 29 405.7 14.5 393.8L0 382Z" fill="#8febff"></path></svg>